inDegrees=no
num_controls=7
num_derivatives=13
num_iterations=117
num_multipliers=7
num_parameters=0
num_slacks=7
num_states=26
objective=0.497125
objective_accelerations=0.032397
objective_balance=0.003269
objective_effort=0.035070
objective_height=0.420897
objective_ligament=0.005492
solver_duration=1320.210329
status=Solve_Succeeded
success=true
DataType=double
version=3
OpenSimVersion=4.5
endheader
time	/jointset/ground_pelvis/pelvis_tilt/value	/jointset/ground_pelvis/pelvis_tx/value	/jointset/ground_pelvis/pelvis_ty/value	/jointset/hip_r/hip_flexion_r/value	/jointset/hip_r/hip_adduction_r/value	/jointset/hip_r/hip_rotation_r/value	/jointset/back/lumbar_extension/value	/jointset/patellofemoral_r/patellar_flexion_r/value	/jointset/knee_r/knee_flexion_r/value	/jointset/knee_r/knee_adduction_r/value	/jointset/knee_r/knee_rotation_r/value	/jointset/ankle_r/ankle_angle_r/value	/jointset/subtalar_r/subtalar_angle_r/value	/jointset/ground_pelvis/pelvis_tilt/speed	/jointset/ground_pelvis/pelvis_tx/speed	/jointset/ground_pelvis/pelvis_ty/speed	/jointset/hip_r/hip_flexion_r/speed	/jointset/hip_r/hip_adduction_r/speed	/jointset/hip_r/hip_rotation_r/speed	/jointset/back/lumbar_extension/speed	/jointset/patellofemoral_r/patellar_flexion_r/speed	/jointset/knee_r/knee_flexion_r/speed	/jointset/knee_r/knee_adduction_r/speed	/jointset/knee_r/knee_rotation_r/speed	/jointset/ankle_r/ankle_angle_r/speed	/jointset/subtalar_r/subtalar_angle_r/speed	/forceset/tau_hip_flexion_r	/forceset/tau_hip_adduction_r	/forceset/tau_hip_rotation_r	/forceset/tau_knee_flexion_r	/forceset/tau_ankle_angle_r	/forceset/tau_subtalar_angle_r	/forceset/tau_lumbar_extension	lambda_cid13_p0	lambda_cid14_p0	lambda_cid14_p1	lambda_cid14_p2	lambda_cid14_p3	lambda_cid14_p4	lambda_cid14_p5	/jointset/ground_pelvis/pelvis_tilt/accel	/jointset/ground_pelvis/pelvis_tx/accel	/jointset/ground_pelvis/pelvis_ty/accel	/jointset/hip_r/hip_flexion_r/accel	/jointset/hip_r/hip_adduction_r/accel	/jointset/hip_r/hip_rotation_r/accel	/jointset/back/lumbar_extension/accel	/jointset/patellofemoral_r/patellar_flexion_r/accel	/jointset/knee_r/knee_flexion_r/accel	/jointset/knee_r/knee_adduction_r/accel	/jointset/knee_r/knee_rotation_r/accel	/jointset/ankle_r/ankle_angle_r/accel	/jointset/subtalar_r/subtalar_angle_r/accel	gamma_cid13_p0	gamma_cid14_p0	gamma_cid14_p1	gamma_cid14_p2	gamma_cid14_p3	gamma_cid14_p4	gamma_cid14_p5
0	-0.006515235809893844	0.0962602298303742	0.9427240819758759	0.1762555222360518	-0.2321526383083155	-0.2616398615723071	-0.038598046466844	0.07317863873451703	0.07317863873451017	0.1745325796656921	0.1745321267433842	0.03247278518263602	-0.003451931660552519	0	0	0	0	0	0	0	0	0	0	0	0	0	0.2127248377861802	-0.1491696446354003	-0.04249458047941081	-0.3945655713465286	0.3925916725552671	-0.1509373101614944	-0.1106672033871537	-39.07620580255207	76.17590307385655	-42.37076970573411	-4.028565745838806	-33.4795806743264	-679.5145070413674	50.24899628045474	-1.224018387430996	-0.8786080441369791	-0.4856247150959907	7.361086817372249	0.2186257933965007	2.244755163318783	-4.829328987984414	8.437761265430437	8.437761265429547	-2.716535448408725	0.1477151583566613	3.093997874388163	0.927728736062341	8.61673974039475e-08	5.496820969095208e-08	-5.675121629308901e-07	1.783493813066525e-07	2.037204367052645e-08	4.79685445340039e-08	-2.780197388050257e-07
0.01	-0.006572059073452429	0.09621907659172028	0.9427008292801383	0.1766097461169293	-0.2321405694758453	-0.2615196422030571	-0.03884040708282412	0.07358854146249019	0.0735885414624837	0.1743968077611222	0.1745282271344272	0.03262652803325363	-0.003404655180499011	-0.01141577197662511	-0.007978370842064122	-0.004638483067324338	0.07036888747034543	0.002356890553735924	0.02392049975165859	-0.04807003334219274	0.08162128023648796	0.08162128023648796	-0.02692562191204328	-0.0007524013375303163	0.03086229244974967	0.009423646731117343	0.2164043309175611	-0.1666398640754558	-0.04402637745896985	-0.4067143266368211	0.4109122197374376	-0.140917487895895	-0.1122757412573662	-39.08983835353312	82.48723115348673	-37.00912245099229	-4.774813473116439	-40.08956596145137	-680.4654798324246	61.73602564839467	-1.108020514677895	-0.7196059969785525	-0.4511420968005168	6.803410888776396	0.2356298271260261	2.447235007848532	-4.735527028988074	7.9704043656407	7.970404365641405	-2.646332805119571	-0.1825373717739547	3.099419166377669	0.9448661443476868	1.150972347378477e-07	5.620389803153789e-08	-7.640542531108432e-07	1.833206477989711e-07	5.117484265928931e-08	-1.035679232258157e-07	-3.518478079113581e-07
0.02	-0.00674457283916411	0.09610570876609774	0.9426315553548776	0.1776533831078874	-0.2321066499096846	-0.2611639103109382	-0.03955140533655715	0.07480387558540566	0.07480387558540527	0.173998628188921	0.1745176395937081	0.03309230865559026	-0.003264105532592029	-0.02313810042921331	-0.01444291739372654	-0.009204245904629949	0.1378826220171146	0.004370146738027391	0.0471025045736814	-0.09372752755041747	0.1610862789882857	0.1610862789882968	-0.05248153352478378	-0.001337586353702042	0.06240755434386963	0.01865463357068423	0.2200838240489502	-0.1841100835155128	-0.04555817443852957	-0.4188630819271046	0.429232766919613	-0.1308976656302961	-0.1138842791275748	-39.13005236863663	88.87374470142761	-31.65735113058927	-5.493167272839269	-46.87530984564015	-680.27436733442	72.99512157236919	-1.285329682623447	-0.5758431860567996	-0.4710806690922407	6.790056232657023	0.1498989195076138	2.097056177391585	-4.346821161190719	8.006504968492427	8.006504968493759	-2.442593388548185	0.1811584226284205	3.230591763262045	0.8891967577522143	1.440270720717479e-07	5.743958637212371e-08	-9.605963432907963e-07	1.882919142912897e-07	8.197764164805217e-08	-2.551043909856353e-07	-4.256758770176904e-07
0.03	-0.00703470622344178	0.09593239215656857	0.9425167452237529	0.1793603580761198	-0.232054486534895	-0.2605826214193975	-0.0407077293713512	0.07680396686995407	0.07680396686995186	0.1733522148818115	0.174504432318718	0.03387356878982151	-0.003033127278614022	-0.03478797158239719	-0.02025398371027356	-0.01376196233888398	0.2032295737611037	0.00601622011333148	0.06904018987122201	-0.1372556407352787	0.2385862217799792	0.2385862217800191	-0.07658541565014507	-0.001317404741282883	0.09361607044690781	0.02744248787836552	0.2116704019736936	-0.1917846430796325	-0.0429613737098994	-0.4059459712627366	0.4065887088719061	-0.1156358000182366	-0.1075838850959683	-39.19584116686962	82.19536803225391	-26.29402007207415	-6.239074668571705	-42.31429100826418	-679.7065494893144	82.38874867498242	-1.089709945218515	-0.5887587146287151	-0.4487960665138532	6.364604665793936	0.16490923691653	2.224915393092068	-4.313560595903191	7.569846591064674	7.569846591068121	-2.362058859842927	-0.08951430532437868	3.031749527058202	0.8586699035555154	1.668132011070624e-07	6.497949030277155e-08	-1.106728301712976e-06	2.21369520958055e-07	9.683369753030502e-08	-3.362933451054077e-07	-5.000574612821537e-07
